<svg width="176" height="78" viewBox="0 0 176 78" fill="none" xmlns="http://www.w3.org/2000/svg">
<path d="M86.877 0.8479C81.577 0.88199 76.231 0.864862 70.997 1.80879C66.3342 2.74329 62.1538 5.19259 58.239 7.79749C53.7538 10.814 50.014 14.8406 47.084 19.3675C45.5491 21.7322 43.9177 24.0642 41.7742 25.9263C38.9578 28.6759 35.9785 31.5373 32.093 32.6544C30.1813 32.9936 32.0212 34.7507 32.5115 35.6438C33.382 36.9397 33.7544 38.4693 34.3497 39.8927C30.7402 38.2995 27.348 36.1212 23.4397 35.2987C18.8816 34.1915 14.0305 33.8585 9.4787 35.1825C6.7025 35.9904 3.889 36.9195 1.4707 38.5396C0.437 39.353 0.85771 40.8727 0.86359 42.0219C1.17235 44.7077 3.07979 46.8432 4.88719 48.7097C6.30299 50.0294 8.06069 50.9872 9.88729 51.5957C12.3596 51.9655 14.8781 51.7103 17.3683 51.8594C25.2372 52.1407 33.1993 52.9707 40.6263 55.7431C43.6515 56.7723 46.3832 58.5084 48.7979 60.582C48.5637 62.8746 48.4949 65.2843 47.2359 67.3039C45.8157 69.8443 43.9988 72.2859 41.4387 73.7712C40.7211 74.3117 41.0385 75.2642 40.9678 76.0293C40.9647 77.0341 42.0629 77.0906 42.8096 77.0293H56.3256C57.9414 76.3634 58.1387 74.1068 59.1308 72.7633C60.634 70.0753 61.8227 67.1109 61.7962 63.986C61.9543 63.1232 61.2031 61.2183 62.6446 62.1797C67.5782 63.9485 72.8226 64.6153 78.0156 65.1082C86.5592 65.9185 95.1756 65.9183 103.716 65.0586C107.96 64.6526 112.194 64.1395 116.428 63.6461C118.48 63.3351 120.404 62.531 122.344 61.8321C122.737 64.1085 123.163 66.4864 122.393 68.7404C121.953 70.8415 120.152 72.2192 118.46 73.3402C117.508 73.8619 117.905 75.0266 117.821 75.9041C117.711 76.8762 118.752 77.138 119.51 77.0294H132.982C134.467 76.5868 134.538 74.5872 135.108 73.3475C136.534 68.7327 136.246 63.8362 135.889 59.0865C137.858 57.3013 140.023 55.6655 142.568 54.7983C146.696 53.4169 150.863 52.1453 154.942 50.6163C161.369 48.216 168.073 45.8333 173.182 41.0671C174.184 40.074 175.25 39.0527 175.816 37.7364C175.405 36.6281 173.608 38.1964 172.691 38.4735C167.389 41.1594 161.63 42.7949 155.877 44.1958C153.298 44.8384 150.614 44.736 148.015 44.2737C147.597 44.1916 146.302 44.1483 147.417 44.0345C149.618 43.6571 152.084 43.1292 153.42 41.148C154.087 40.3016 155.496 39.0608 153.873 38.3482C149.977 35.2119 145.654 32.3977 142.83 28.1642C140.779 25.2597 139.5 21.8864 137.325 19.0595C135.571 16.8227 134.522 14.0742 132.427 12.106C130.192 10.001 127.827 8.01958 125.33 6.23418C121.647 3.84638 117.188 3.25938 112.945 2.58248C104.31 1.40548 95.587 0.9111 86.877 0.8479Z" fill="currentColor"/>
</svg>