<svg width="144" height="144" viewBox="0 0 144 144" fill="none" xmlns="http://www.w3.org/2000/svg">
  <g clip-path="url(#clip0_666_1219)">
    <mask id="mask0_666_1219" style="mask-type:alpha" maskUnits="userSpaceOnUse" x="0" y="0"
      width="144" height="144">
      <rect width="144" height="144" fill="#000000" />
    </mask>
    <g mask="url(#mask0_666_1219)">
      <path
        d="M67.65 125.7C55.35 124.7 45 119.65 36.6 110.55C28.2 101.45 24 90.6502 24 78.1502C24 70.4502 25.775 63.2002 29.325 56.4002C32.875 49.6002 37.85 44.0502 44.25 39.7502L50.7 46.2002C45.1 49.5002 40.75 54.0252 37.65 59.7752C34.55 65.5252 33 71.6502 33 78.1502C33 88.1502 36.3 96.8002 42.9 104.1C49.5 111.4 57.75 115.6 67.65 116.7V125.7ZM76.65 125.7V116.7C86.65 115.5 94.9 111.275 101.4 104.025C107.9 96.7752 111.15 88.1502 111.15 78.1502C111.15 67.2502 107.375 58.0252 99.825 50.4752C92.275 42.9252 83.05 39.1502 72.15 39.1502H69.15L78.15 48.1502L71.7 54.6002L51.75 34.6502L71.7 14.7002L78.15 21.1502L69.15 30.1502H72.15C85.55 30.1502 96.9 34.8252 106.2 44.1752C115.5 53.5252 120.15 64.8502 120.15 78.1502C120.15 90.6502 115.975 101.45 107.625 110.55C99.275 119.65 88.95 124.7 76.65 125.7Z"
        fill="white" />
    </g>
  </g>
  <defs>
    <clipPath id="clip0_666_1219">
      <rect width="144" height="144" fill="white" />
    </clipPath>
  </defs>
</svg>