<svg width="144" height="144" viewBox="0 0 144 144" fill="none" xmlns="http://www.w3.org/2000/svg">
<mask id="path-1-outside-1_597_520" maskUnits="userSpaceOnUse" x="95" y="23" width="23" height="26" fill="black">
<rect fill="white" x="95" y="23" width="23" height="26"/>
<path d="M97.3754 47V43.392L108.057 30.1676V30.0114H97.7447V25.1818H115.344V29.1165L105.316 42.0142V42.1705H115.713V47H97.3754Z"/>
</mask>
<path d="M97.3754 47V43.392L108.057 30.1676V30.0114H97.7447V25.1818H115.344V29.1165L105.316 42.0142V42.1705H115.713V47H97.3754Z" fill="white"/>
<path d="M97.3754 47H95.3754V49H97.3754V47ZM97.3754 43.392L95.8195 42.1353L95.3754 42.6852V43.392H97.3754ZM108.057 30.1676L109.613 31.4243L110.057 30.8745V30.1676H108.057ZM108.057 30.0114H110.057V28.0114H108.057V30.0114ZM97.7447 30.0114H95.7447V32.0114H97.7447V30.0114ZM97.7447 25.1818V23.1818H95.7447V25.1818H97.7447ZM115.344 25.1818H117.344V23.1818H115.344V25.1818ZM115.344 29.1165L116.923 30.3441L117.344 29.8025V29.1165H115.344ZM105.316 42.0142L103.737 40.7866L103.316 41.3282V42.0142H105.316ZM105.316 42.1705H103.316V44.1705H105.316V42.1705ZM115.713 42.1705H117.713V40.1705H115.713V42.1705ZM115.713 47V49H117.713V47H115.713ZM97.3754 47H99.3754V43.392H97.3754H95.3754V47H97.3754ZM97.3754 43.392L98.9312 44.6488L109.613 31.4243L108.057 30.1676L106.501 28.9109L95.8195 42.1353L97.3754 43.392ZM108.057 30.1676H110.057V30.0114H108.057H106.057V30.1676H108.057ZM108.057 30.0114V28.0114H97.7447V30.0114V32.0114H108.057V30.0114ZM97.7447 30.0114H99.7447V25.1818H97.7447H95.7447V30.0114H97.7447ZM97.7447 25.1818V27.1818H115.344V25.1818V23.1818H97.7447V25.1818ZM115.344 25.1818H113.344V29.1165H115.344H117.344V25.1818H115.344ZM115.344 29.1165L113.765 27.8888L103.737 40.7866L105.316 42.0142L106.895 43.2418L116.923 30.3441L115.344 29.1165ZM105.316 42.0142H103.316V42.1705H105.316H107.316V42.0142H105.316ZM105.316 42.1705V44.1705H115.713V42.1705V40.1705H105.316V42.1705ZM115.713 42.1705H113.713V47H115.713H117.713V42.1705H115.713ZM115.713 47V45H97.3754V47V49H115.713V47Z" fill="black" mask="url(#path-1-outside-1_597_520)"/>
<mask id="path-3-outside-2_597_520" maskUnits="userSpaceOnUse" x="79" y="33" width="18" height="21" fill="black">
<rect fill="white" x="79" y="33" width="18" height="21"/>
<path d="M81.1565 52V49.294L89.1679 39.3757V39.2585H81.4335V35.6364H94.6331V38.5874L87.1118 48.2607V48.3778H94.9101V52H81.1565Z"/>
</mask>
<path d="M81.1565 52V49.294L89.1679 39.3757V39.2585H81.4335V35.6364H94.6331V38.5874L87.1118 48.2607V48.3778H94.9101V52H81.1565Z" fill="white"/>
<path d="M81.1565 52H79.1565V54H81.1565V52ZM81.1565 49.294L79.6007 48.0373L79.1565 48.5872V49.294H81.1565ZM89.1679 39.3757L90.7237 40.6324L91.1679 40.0826V39.3757H89.1679ZM89.1679 39.2585H91.1679V37.2585H89.1679V39.2585ZM81.4335 39.2585H79.4335V41.2585H81.4335V39.2585ZM81.4335 35.6364V33.6364H79.4335V35.6364H81.4335ZM94.6331 35.6364H96.6331V33.6364H94.6331V35.6364ZM94.6331 38.5874L96.212 39.815L96.6331 39.2734V38.5874H94.6331ZM87.1118 48.2607L85.5329 47.033L85.1118 47.5746V48.2607H87.1118ZM87.1118 48.3778H85.1118V50.3778H87.1118V48.3778ZM94.9101 48.3778H96.9101V46.3778H94.9101V48.3778ZM94.9101 52V54H96.9101V52H94.9101ZM81.1565 52H83.1565V49.294H81.1565H79.1565V52H81.1565ZM81.1565 49.294L82.7124 50.5507L90.7237 40.6324L89.1679 39.3757L87.612 38.119L79.6007 48.0373L81.1565 49.294ZM89.1679 39.3757H91.1679V39.2585H89.1679H87.1679V39.3757H89.1679ZM89.1679 39.2585V37.2585H81.4335V39.2585V41.2585H89.1679V39.2585ZM81.4335 39.2585H83.4335V35.6364H81.4335H79.4335V39.2585H81.4335ZM81.4335 35.6364V37.6364H94.6331V35.6364V33.6364H81.4335V35.6364ZM94.6331 35.6364H92.6331V38.5874H94.6331H96.6331V35.6364H94.6331ZM94.6331 38.5874L93.0542 37.3597L85.5329 47.033L87.1118 48.2607L88.6907 49.4883L96.212 39.815L94.6331 38.5874ZM87.1118 48.2607H85.1118V48.3778H87.1118H89.1118V48.2607H87.1118ZM87.1118 48.3778V50.3778H94.9101V48.3778V46.3778H87.1118V48.3778ZM94.9101 48.3778H92.9101V52H94.9101H96.9101V48.3778H94.9101ZM94.9101 52V50H81.1565V52V54H94.9101V52Z" fill="black" mask="url(#path-3-outside-2_597_520)"/>
<mask id="path-5-outside-3_597_520" maskUnits="userSpaceOnUse" x="116" y="13" width="27" height="31" fill="black">
<rect fill="white" x="116" y="13" width="27" height="31"/>
<path d="M118.05 42V37.6705L130.869 21.8011V21.6136H118.494V15.8182H139.613V20.5398L127.579 36.017V36.2045H140.056V42H118.05Z"/>
</mask>
<path d="M118.05 42V37.6705L130.869 21.8011V21.6136H118.494V15.8182H139.613V20.5398L127.579 36.017V36.2045H140.056V42H118.05Z" fill="white"/>
<path d="M118.05 42H116.05V44H118.05V42ZM118.05 37.6705L116.495 36.4137L116.05 36.9636V37.6705H118.05ZM130.869 21.8011L132.424 23.0578L132.869 22.508V21.8011H130.869ZM130.869 21.6136H132.869V19.6136H130.869V21.6136ZM118.494 21.6136H116.494V23.6136H118.494V21.6136ZM118.494 15.8182V13.8182H116.494V15.8182H118.494ZM139.613 15.8182H141.613V13.8182H139.613V15.8182ZM139.613 20.5398L141.192 21.7674L141.613 21.2258V20.5398H139.613ZM127.579 36.017L126 34.7894L125.579 35.331V36.017H127.579ZM127.579 36.2045H125.579V38.2045H127.579V36.2045ZM140.056 36.2045H142.056V34.2045H140.056V36.2045ZM140.056 42V44H142.056V42H140.056ZM118.05 42H120.05V37.6705H118.05H116.05V42H118.05ZM118.05 37.6705L119.606 38.9272L132.424 23.0578L130.869 21.8011L129.313 20.5444L116.495 36.4137L118.05 37.6705ZM130.869 21.8011H132.869V21.6136H130.869H128.869V21.8011H130.869ZM130.869 21.6136V19.6136H118.494V21.6136V23.6136H130.869V21.6136ZM118.494 21.6136H120.494V15.8182H118.494H116.494V21.6136H118.494ZM118.494 15.8182V17.8182H139.613V15.8182V13.8182H118.494V15.8182ZM139.613 15.8182H137.613V20.5398H139.613H141.613V15.8182H139.613ZM139.613 20.5398L138.034 19.3121L126 34.7894L127.579 36.017L129.158 37.2447L141.192 21.7674L139.613 20.5398ZM127.579 36.017H125.579V36.2045H127.579H129.579V36.017H127.579ZM127.579 36.2045V38.2045H140.056V36.2045V34.2045H127.579V36.2045ZM140.056 36.2045H138.056V42H140.056H142.056V36.2045H140.056ZM140.056 42V40H118.05V42V44H140.056V42Z" fill="black" mask="url(#path-5-outside-3_597_520)"/>
</svg>
