<svg width="144" height="144" viewBox="0 0 144 144" fill="none" xmlns="http://www.w3.org/2000/svg">
<g clip-path="url(#clip0_666_1209)">
<mask id="mask0_666_1209" style="mask-type:alpha" maskUnits="userSpaceOnUse" x="0" y="0" width="144" height="144">
<rect width="144" height="144" fill="#D9D9D9"/>
</mask>
<g mask="url(#mask0_666_1209)">
<path d="M52.8 129C40.9 125 31.125 117.85 23.475 107.55C15.825 97.25 12 85.4 12 72C12 68.8 12.225 65.6 12.675 62.4C13.125 59.2 13.9 56.05 15 52.95L5.39999 58.5L0.899994 50.85L26.85 35.85L41.85 61.65L34.05 66.15L25.35 51.3C23.95 54.6 22.875 57.975 22.125 61.425C21.375 64.875 21 68.4 21 72C21 83.6 24.425 93.875 31.275 102.825C38.125 111.775 46.85 117.85 57.45 121.05L52.8 129ZM96 51V42H113.25C108.45 35.4 102.425 30.25 95.175 26.55C87.925 22.85 80.2 21 72 21C65.1 21 58.675 22.25 52.725 24.75C46.775 27.25 41.5 30.7 36.9 35.1L32.25 27C37.65 22.3 43.725 18.625 50.475 15.975C57.225 13.325 64.4 12 72 12C80.8 12 89.075 13.775 96.825 17.325C104.575 20.875 111.3 25.9 117 32.4V21H126V51H96ZM89.25 144L63.3 129L78.3 103.2L85.95 107.7L77.25 122.85C90.25 121.55 101.125 116.05 109.875 106.35C118.625 96.65 123 85.2 123 72C123 69.9 122.875 67.875 122.625 65.925C122.375 63.975 122 62 121.5 60H130.8C131.2 62 131.5 64 131.7 66C131.9 68 132 70 132 72C132 86.3 127.525 98.95 118.575 109.95C109.625 120.95 98.2 127.9 84.3 130.8L93.75 136.35L89.25 144Z" fill="white"/>
</g>
</g>
<defs>
<clipPath id="clip0_666_1209">
<rect width="144" height="144" fill="white"/>
</clipPath>
</defs>
</svg>
