<svg width="144" height="144" viewBox="0 0 144 144" fill="none" xmlns="http://www.w3.org/2000/svg">
<circle cx="71.5" cy="72.5" r="62.5" fill="#FF0000"/>
<circle cx="71.5" cy="72.5" r="49.5" fill="white"/>
<path d="M44 72.625L46.25 49.5H68.2812V57.0625H53.5L52.6875 66.8125C54.3958 65.6667 56.1562 65.0938 57.9688 65.0938C61.7188 65.0938 64.6042 66.4271 66.625 69.0938C68.6667 71.7604 69.6875 75.5312 69.6875 80.4062C69.6875 84.9688 68.4792 88.6458 66.0625 91.4375C63.6458 94.2292 60.4167 95.625 56.375 95.625C53.9792 95.625 51.7604 95.0625 49.7188 93.9375C47.6771 92.7917 46.0625 91.2083 44.875 89.1875C43.7083 87.1667 43.1146 84.875 43.0938 82.3125H51.8438C51.9896 84.2083 52.4583 85.6771 53.25 86.7188C54.0417 87.7604 55.0625 88.2812 56.3125 88.2812C57.7708 88.2812 58.8958 87.5833 59.6875 86.1875C60.4792 84.7708 60.875 82.6667 60.875 79.875C60.875 77.25 60.3958 75.2708 59.4375 73.9375C58.5 72.6042 57.1771 71.9375 55.4688 71.9375C53.8021 71.9375 52.5104 72.5104 51.5938 73.6562L51.0312 74.4375L44 72.625ZM101.906 76.1875C101.906 82.4792 100.76 87.2917 98.4688 90.625C96.1979 93.9583 92.9479 95.625 88.7188 95.625C84.5312 95.625 81.2917 94.0104 79 90.7812C76.7292 87.5312 75.5521 82.8854 75.4688 76.8438V68.25C75.4688 61.9792 76.6042 57.1875 78.875 53.875C81.1458 50.5417 84.4062 48.875 88.6562 48.875C92.9062 48.875 96.1667 50.5208 98.4375 53.8125C100.708 57.1042 101.865 61.8021 101.906 67.9062V76.1875ZM93.0312 66.9688C93.0312 63.3854 92.6771 60.6979 91.9688 58.9062C91.2604 57.1146 90.1562 56.2188 88.6562 56.2188C85.8438 56.2188 84.3854 59.5 84.2812 66.0625V77.4062C84.2812 81.0729 84.6354 83.8021 85.3438 85.5938C86.0729 87.3854 87.1979 88.2812 88.7188 88.2812C90.1562 88.2812 91.2188 87.4479 91.9062 85.7812C92.6146 84.0938 92.9896 81.5208 93.0312 78.0625V66.9688Z" fill="black"/>
</svg>
