<svg width="144" height="144" viewBox="0 0 144 144" fill="none" xmlns="http://www.w3.org/2000/svg">
<circle cx="71.5" cy="72.5" r="62.5" fill="#FF0000"/>
<circle cx="71.5" cy="72.5" r="49.5" fill="white"/>
<path d="M62.5625 95H53.6875V60.25L45.0312 63.5938V56.2188L61.625 49.4375H62.5625V95ZM101.906 76.1875C101.906 82.4792 100.76 87.2917 98.4688 90.625C96.1979 93.9583 92.9479 95.625 88.7188 95.625C84.5312 95.625 81.2917 94.0104 79 90.7812C76.7292 87.5312 75.5521 82.8854 75.4688 76.8438V68.25C75.4688 61.9792 76.6042 57.1875 78.875 53.875C81.1458 50.5417 84.4062 48.875 88.6562 48.875C92.9062 48.875 96.1667 50.5208 98.4375 53.8125C100.708 57.1042 101.865 61.8021 101.906 67.9062V76.1875ZM93.0312 66.9688C93.0312 63.3854 92.6771 60.6979 91.9688 58.9062C91.2604 57.1146 90.1562 56.2188 88.6562 56.2188C85.8438 56.2188 84.3854 59.5 84.2812 66.0625V77.4062C84.2812 81.0729 84.6354 83.8021 85.3438 85.5938C86.0729 87.3854 87.1979 88.2812 88.7188 88.2812C90.1562 88.2812 91.2188 87.4479 91.9062 85.7812C92.6146 84.0938 92.9896 81.5208 93.0312 78.0625V66.9688Z" fill="black"/>
</svg>
