<svg width="144" height="144" viewBox="0 0 144 144" fill="none" xmlns="http://www.w3.org/2000/svg">
<circle cx="71.5" cy="72.5" r="62.5" fill="#FF0000"/>
<circle cx="71.5" cy="72.5" r="49.5" fill="white"/>
<path d="M50.9688 68.2188H55.25C56.875 68.2188 58.0625 67.6562 58.8125 66.5312C59.5833 65.3854 59.9688 63.8646 59.9688 61.9688C59.9688 60.1562 59.5729 58.75 58.7812 57.75C58.0104 56.7292 56.9688 56.2188 55.6562 56.2188C54.4271 56.2188 53.4167 56.6979 52.625 57.6562C51.8542 58.6146 51.4688 59.8229 51.4688 61.2812H42.625C42.625 58.9062 43.1667 56.7812 44.25 54.9062C45.3542 53.0104 46.8854 51.5312 48.8438 50.4688C50.8229 49.4062 53.0104 48.875 55.4062 48.875C59.5938 48.875 62.875 50.0312 65.25 52.3438C67.625 54.6562 68.8125 57.8229 68.8125 61.8438C68.8125 63.9062 68.2708 65.8229 67.1875 67.5938C66.125 69.3438 64.7188 70.6875 62.9688 71.625C65.1146 72.5417 66.7083 73.9167 67.75 75.75C68.8125 77.5833 69.3438 79.75 69.3438 82.25C69.3438 86.2917 68.0521 89.5312 65.4688 91.9688C62.9062 94.4062 59.5312 95.625 55.3438 95.625C51.4479 95.625 48.2812 94.4271 45.8438 92.0312C43.4271 89.6146 42.2188 86.4479 42.2188 82.5312H51.0625C51.0625 84.1562 51.4896 85.5208 52.3438 86.625C53.1979 87.7292 54.2812 88.2812 55.5938 88.2812C57.1146 88.2812 58.3125 87.7188 59.1875 86.5938C60.0833 85.4688 60.5312 83.9688 60.5312 82.0938C60.5312 77.6146 58.7917 75.3646 55.3125 75.3438H50.9688V68.2188ZM101.906 76.1875C101.906 82.4792 100.76 87.2917 98.4688 90.625C96.1979 93.9583 92.9479 95.625 88.7188 95.625C84.5312 95.625 81.2917 94.0104 79 90.7812C76.7292 87.5312 75.5521 82.8854 75.4688 76.8438V68.25C75.4688 61.9792 76.6042 57.1875 78.875 53.875C81.1458 50.5417 84.4062 48.875 88.6562 48.875C92.9062 48.875 96.1667 50.5208 98.4375 53.8125C100.708 57.1042 101.865 61.8021 101.906 67.9062V76.1875ZM93.0312 66.9688C93.0312 63.3854 92.6771 60.6979 91.9688 58.9062C91.2604 57.1146 90.1562 56.2188 88.6562 56.2188C85.8438 56.2188 84.3854 59.5 84.2812 66.0625V77.4062C84.2812 81.0729 84.6354 83.8021 85.3438 85.5938C86.0729 87.3854 87.1979 88.2812 88.7188 88.2812C90.1562 88.2812 91.2188 87.4479 91.9062 85.7812C92.6146 84.0938 92.9896 81.5208 93.0312 78.0625V66.9688Z" fill="black"/>
</svg>
