<svg width="144" height="144" viewBox="0 0 144 144" fill="none" xmlns="http://www.w3.org/2000/svg">
<circle cx="71.5" cy="72.5" r="62.5" fill="#FF0000"/>
<circle cx="71.5" cy="72.5" r="49.5" fill="white"/>
<path d="M70.2812 77.875V85.1562H42.5L42.0938 79.4375L57.5625 49.5H64.5L57.4062 62.8125L50.6562 77.875H70.2812ZM66.4062 49.5V95H57.625V49.5H66.4062ZM101.875 68.25V76.1562C101.875 79.5729 101.552 82.5104 100.906 84.9688C100.26 87.4271 99.3542 89.4479 98.1875 91.0312C97.0208 92.5938 95.6354 93.75 94.0312 94.5C92.4271 95.25 90.6562 95.625 88.7188 95.625C87.1771 95.625 85.7292 95.3854 84.375 94.9062C83.0208 94.4271 81.7917 93.6979 80.6875 92.7188C79.6042 91.7188 78.6667 90.4583 77.875 88.9375C77.1042 87.3958 76.5104 85.5729 76.0938 83.4688C75.6771 81.3438 75.4688 78.9062 75.4688 76.1562V68.25C75.4688 64.8333 75.7917 61.9062 76.4375 59.4688C77.1042 57.0104 78.0208 55 79.1875 53.4375C80.3542 51.875 81.7396 50.7292 83.3438 50C84.9688 49.25 86.75 48.875 88.6875 48.875C90.2083 48.875 91.6458 49.1146 93 49.5938C94.3542 50.0521 95.5729 50.7708 96.6562 51.75C97.7396 52.7292 98.6667 53.9896 99.4375 55.5312C100.229 57.0521 100.833 58.875 101.25 61C101.667 63.1042 101.875 65.5208 101.875 68.25ZM93.0938 77.375V66.9688C93.0938 65.3646 93.0208 63.9583 92.875 62.75C92.75 61.5417 92.5625 60.5208 92.3125 59.6875C92.0833 58.8542 91.7812 58.1771 91.4062 57.6562C91.0521 57.1354 90.6458 56.7604 90.1875 56.5312C89.7292 56.2812 89.2292 56.1562 88.6875 56.1562C88 56.1562 87.3854 56.3438 86.8438 56.7188C86.3021 57.0938 85.8333 57.7083 85.4375 58.5625C85.0417 59.3958 84.7396 60.5104 84.5312 61.9062C84.3438 63.2812 84.25 64.9688 84.25 66.9688V77.375C84.25 78.9792 84.3125 80.3958 84.4375 81.625C84.5833 82.8542 84.7812 83.9062 85.0312 84.7812C85.3021 85.6354 85.6042 86.3229 85.9375 86.8438C86.2917 87.3646 86.6979 87.75 87.1562 88C87.6354 88.2292 88.1562 88.3438 88.7188 88.3438C89.3854 88.3438 89.9896 88.1562 90.5312 87.7812C91.0938 87.3854 91.5625 86.7604 91.9375 85.9062C92.3125 85.0521 92.5938 83.9271 92.7812 82.5312C92.9896 81.1146 93.0938 79.3958 93.0938 77.375Z" fill="black"/>
</svg>
