<svg width="144" height="144" viewBox="0 0 144 144" fill="none" xmlns="http://www.w3.org/2000/svg">
<circle cx="71.5" cy="72.5" r="62.5" fill="#FF0000"/>
<circle cx="71.5" cy="72.5" r="49.5" fill="white"/>
<path d="M43.3125 75.5938L28.875 69.3125V60.5625L51.9375 71.9375V79.375L28.875 90.7812V82.0312L43.3125 75.5938ZM58.0312 72.625L60.2812 49.5H82.3125V57.0625H67.5312L66.7188 66.8125C68.4271 65.6667 70.1875 65.0938 72 65.0938C75.75 65.0938 78.6354 66.4271 80.6562 69.0938C82.6979 71.7604 83.7188 75.5312 83.7188 80.4062C83.7188 84.9688 82.5104 88.6458 80.0938 91.4375C77.6771 94.2292 74.4479 95.625 70.4062 95.625C68.0104 95.625 65.7917 95.0625 63.75 93.9375C61.7083 92.7917 60.0938 91.2083 58.9062 89.1875C57.7396 87.1667 57.1458 84.875 57.125 82.3125H65.875C66.0208 84.2083 66.4896 85.6771 67.2812 86.7188C68.0729 87.7604 69.0938 88.2812 70.3438 88.2812C71.8021 88.2812 72.9271 87.5833 73.7188 86.1875C74.5104 84.7708 74.9062 82.6667 74.9062 79.875C74.9062 77.25 74.4271 75.2708 73.4688 73.9375C72.5312 72.6042 71.2083 71.9375 69.5 71.9375C67.8333 71.9375 66.5417 72.5104 65.625 73.6562L65.0625 74.4375L58.0312 72.625ZM115.938 76.1875C115.938 82.4792 114.792 87.2917 112.5 90.625C110.229 93.9583 106.979 95.625 102.75 95.625C98.5625 95.625 95.3229 94.0104 93.0312 90.7812C90.7604 87.5312 89.5833 82.8854 89.5 76.8438V68.25C89.5 61.9792 90.6354 57.1875 92.9062 53.875C95.1771 50.5417 98.4375 48.875 102.688 48.875C106.938 48.875 110.198 50.5208 112.469 53.8125C114.74 57.1042 115.896 61.8021 115.938 67.9062V76.1875ZM107.062 66.9688C107.062 63.3854 106.708 60.6979 106 58.9062C105.292 57.1146 104.188 56.2188 102.688 56.2188C99.875 56.2188 98.4167 59.5 98.3125 66.0625V77.4062C98.3125 81.0729 98.6667 83.8021 99.375 85.5938C100.104 87.3854 101.229 88.2812 102.75 88.2812C104.188 88.2812 105.25 87.4479 105.938 85.7812C106.646 84.0938 107.021 81.5208 107.062 78.0625V66.9688Z" fill="black"/>
</svg>
